<?xml version="1.0" encoding="utf-8"?>
<!-- Generator: Adobe Illustrator 19.0.0, SVG Export Plug-In . SVG Version: 6.00 Build 0)  -->
<svg version="1.1" id="Layer_1" xmlns="http://www.w3.org/2000/svg" xmlns:xlink="http://www.w3.org/1999/xlink" x="0px" y="0px"
	 viewBox="0 0 1131.2 365.1" style="enable-background:new 0 0 1131.2 365.1;" xml:space="preserve">
<style type="text/css">
	.st0{fill:#053B59;}
	.st1{fill-rule:evenodd;clip-rule:evenodd;fill:#404040;}
	.st2{fill:#0899CD;}
	.st3{fill:#787878;}
</style>
<g>
	<g>
		<path class="st0" d="M92,202.8c-3,12-5.7,22.7-7.7,33.2H84c-1.4-10.1-4-21.5-6.7-33l-11.7-48.8h-13l-12.8,48.5
			c-3.3,12.4-6.3,23.8-7.8,33.4h-0.3c-1.7-9.3-4.3-21.3-7.1-33.2l-11.4-48.7H0l24.4,96.2h13l13.7-50.1c3.6-12.4,5.7-21.8,7.4-31.4
			h0.3c1.3,9.7,3.3,19.1,6.3,31.4l12.1,50.1h13l27.3-96.2h-12.7L92,202.8z"/>
		<path class="st0" d="M133,154.1c-4.6,0-7.8,3.4-7.8,7.8c0,4.3,3.1,7.7,7.6,7.7c5,0,8.1-3.4,8-7.7
			C140.7,157.6,137.7,154.1,133,154.1z"/>
		<rect x="126.7" y="181.4" class="st0" width="12.6" height="69.1"/>
		<path class="st0" d="M194.5,179.8c-11.4,0-19.4,6.4-22.8,13h-0.3l-0.7-11.4h-11.1c0.4,5.7,0.6,11.6,0.6,18.7v50.4h12.6v-41.5
			c0-2.1,0.3-4.3,0.9-5.9c2.1-7,8.6-12.8,16.8-12.8c11.8,0,16,9.3,16,20.4v39.8h12.6v-41.2C218.9,185.5,204,179.8,194.5,179.8z"/>
		<path class="st0" d="M298.9,149.1h-12.6v41.2h-0.3c-3.1-5.6-10.3-10.6-20.8-10.6c-16.8,0-31.1,14.1-31,37.1
			c0,21,12.8,35.1,29.5,35.1c11.3,0,19.7-5.9,23.5-13.6h0.3l0.6,12h11.3c-0.4-4.7-0.6-11.7-0.6-17.8V149.1z M286.4,221.5
			c0,2-0.1,3.7-0.6,5.4c-2.3,9.4-10,15-18.4,15c-13.6,0-20.4-11.6-20.4-25.5c0-15.3,7.7-26.7,20.7-26.7c9.4,0,16.3,6.6,18.1,14.6
			c0.4,1.6,0.6,3.7,0.6,5.3V221.5z"/>
		<path class="st0" d="M342,210.4c-9-3.4-13.1-6-13.1-11.7c0-5.1,4.1-9.4,11.6-9.4c6.4,0,11.4,2.3,14.1,4l3.1-9.1
			c-3.9-2.3-10-4.3-17-4.3c-14.8,0-23.8,9.1-23.8,20.3c0,8.3,5.8,15.1,18.3,19.5c9.3,3.4,12.8,6.7,12.8,12.7
			c0,5.7-4.3,10.3-13.4,10.3c-6.3,0-12.8-2.6-16.6-5l-3.1,9.6c4.9,2.9,11.8,4.7,19.4,4.7c16.4,0,25.8-8.6,25.8-20.7
			C360.1,220.9,354,214.9,342,210.4z"/>
		<path class="st0" d="M410.9,179.8c-4.7,0-9.1,1.4-12.8,3.6c-3.9,2.1-7,5.3-9,8.9h-0.3v-43.1h-12.6v101.3h12.6v-41.7
			c0-2.4,0.1-4.3,0.9-6c2.3-6.8,8.7-12.5,16.8-12.5c11.8,0,16,9.4,16,20.5v39.7H435v-41.1C435,185.5,420.2,179.8,410.9,179.8z"/>
		<rect x="455.5" y="181.4" class="st0" width="12.6" height="69.1"/>
		<path class="st0" d="M461.7,154.1c-4.6,0-7.8,3.4-7.8,7.8c0,4.3,3.1,7.7,7.6,7.7c5,0,8.1-3.4,8-7.7
			C469.4,157.6,466.4,154.1,461.7,154.1z"/>
		<path class="st0" d="M516.2,179.8c-20.1,0-32.4,16.4-32.4,37.2c0,20.8,12.7,34.8,34,34.8c11,0,18.5-2.3,23-4.3l-2.1-9
			c-4.7,2-10.1,3.6-19.1,3.6c-12.6,0-23.4-7-23.7-24h48.5c0.1-1.3,0.4-3.3,0.4-5.8C544.8,199.7,538.8,179.8,516.2,179.8z M496,209.2
			c1-8.7,6.6-20.4,19.3-20.4c14.1,0,17.5,12.4,17.4,20.4H496z"/>
		<rect x="560.3" y="149.1" class="st0" width="12.6" height="101.3"/>
		<path class="st0" d="M653.6,232.6v-83.5h-12.6v41.2h-0.3c-3.1-5.6-10.3-10.6-20.8-10.6c-16.8,0-31.1,14.1-31,37.1
			c0,21,12.8,35.1,29.5,35.1c11.3,0,19.7-5.9,23.5-13.6h0.3l0.6,12h11.3C653.8,245.7,653.6,238.8,653.6,232.6z M641.1,221.5
			c0,2-0.1,3.7-0.6,5.4c-2.3,9.4-10,15-18.4,15c-13.6,0-20.4-11.6-20.4-25.5c0-15.3,7.7-26.7,20.7-26.7c9.4,0,16.3,6.6,18.1,14.6
			c0.4,1.6,0.6,3.7,0.6,5.3V221.5z"/>
	</g>
</g>
<g>
	<g>
		<path class="st1" d="M921.7,196.8c-5.9,0-11.3,4.4-12.7,10.7c-0.3,1.3-0.4,2.6-0.4,4v10.3c0,1.4,0.1,2.7,0.4,3.8
			c1.4,5.9,6.4,10.3,12.7,10.3c9.3,0,15-7.1,15-19.7C936.7,205.4,931.8,196.8,921.7,196.8z"/>
		<path class="st1" d="M990.6,272.3c-10.5-33.5-23.7-66.3-36.4-96.9l-5-11.9c-2-3.8-4.2-7.3-6.8-10.4l-2.6-3.2
			c-1.3-1.4-2.8-2.7-4.4-3.9c-2.7-2.2-5-3.5-6.2-4.1H929c0,0-3.2-1.7-4-2c-12.6-6.2-26.6-10.7-42.9-13.8
			c-17.6-3.3-36.4-6.8-54.9-9.1c-2.4-0.3-4.9-0.6-7.3-0.9l-1.9-0.2c-25.2-2.7-51.3-4.4-77.4-5.1c-4.2-0.1-8.4-0.2-12.9-0.3v81.8
			h35.8v-37h21.7v109.9c19.4,0.9,39.2,1.8,58.7,3.4c12.4,1,25.1,1.6,37.3,2.1c4.2,0.2,8.4,0.4,12.6,0.6l8.2,0.4
			c9.4,0.5,16.5,1.1,23.3,1.7c18.1,1.7,36.5,3,54.4,4.2c4.2,0.3,8.3,0.6,12.5,0.9C991.8,276.4,991.3,274.3,990.6,272.3z
			 M851.2,251.5l-1-9.8h-0.4c-2.7,4.3-9.3,11.4-21.8,11.4c-14.1,0-24.5-8.9-24.5-30.4v-41h21.8v37.5c0,10.1,3.3,16.3,10.8,16.3
			c6,0,9.4-4.1,10.8-7.6c0.6-1.3,0.7-3,0.7-4.7v-41.5h21.8v47.4c0,9.1,0.3,16.5,0.6,22.4H851.2z M926.8,253.1c-8.1,0-16-3-21-11.3
			h-0.3l-0.9,9.7h-18.4c0.3-4.6,0.6-13,0.6-20.8v-80.5h21.7V190h0.3c4.2-6,11.4-9.8,21.1-9.8c16.7,0,29,13.8,28.8,35.2
			C958.8,240.5,942.8,253.1,926.8,253.1z M727.9,251.5h-21.8V110.1c-1.9,0-3.7,0-5.7-0.1H700v152c1,0,2.1,0.1,3.1,0.1
			c3.1,0,6.3,0.1,9.5,0.2c14.1,0.4,29.3,0.9,46.6,1.7l4.5,0.2v-53.1h-35.8V251.5z"/>
	</g>
	<path class="st2" d="M1122.3,240.8c-8.4-6.5-18.3-10-28.4-12.7c-8.3-2.2-16.8-3.8-25.3-5c-4.4-0.6-9.1,0-13.4,1
		c-10.6,2.3-16.2,10-16,20.8c0.1,3,0.1,6-0.6,8.8c-1.9,9-2,8.9-11.3,9c-2.9,0-4.1-1.2-5.2-3.7c-16.3-38.7-35.6-75.9-58.3-111.1
		c-1.3-2-2.7-4.1-4-6.1c-0.9-1.4-1.9-2.7-2.9-3.9c-7.8-9.7-18.7-15.5-30.1-20.4c-16.6-7.1-34.1-11.8-51.9-14.9
		c-14.3-2.5-28.6-5.4-43-7.2c-0.8-0.1-1.7-0.2-2.5-0.3c-2.4-0.3-4.8-0.6-7.2-0.8c-17.1-1.9-34.3-3.3-51.4-4.5
		c-26.4-1.9-52.9-2.7-79.4-2.8c-4.4,0-8.9,0-13.4,0v211.5h2.6l21.9,0l-21.7,59.6l82.6-85.3c-1.6-0.1-3.3-0.1-4.9-0.2
		c-15.5-0.7-30.9-1.3-46.4-1.7h0c-3.2-0.1-6.3-0.2-9.5-0.2c-3.8-0.1-7.5-0.2-11.3-0.2V101.7c3,0,5.9,0.1,8.8,0.1
		c13.5,0.2,27,0.4,40.5,0.8c26.1,0.7,52.2,2.4,78.2,5.2c0.6,0.1,1.2,0.1,1.8,0.2c2.5,0.3,5,0.6,7.4,0.9c18.6,2.3,37,5.7,55.4,9.2
		c15.5,2.9,30.7,7.5,45,14.5c0.8,0.4,1.5,0.8,2.3,1.2c0,0,1,0.4,2.7,1.3c1.7,0.9,4,2.4,6.7,4.5c2.8,2.1,5.5,4.6,7.9,7.7
		c0.2,0.3,0.4,0.5,0.6,0.8c0,0-0.1,0-0.1,0c4.7,5.8,9.4,13.6,13,24.3c6.7,16,13.2,32.2,19.5,48.4c6.2,16.3,12,32.6,17.2,49.3
		c1.8,5.6,3.1,11.4,4.7,17.2c-1.2,0.4-1.4,0.6-1.7,0.6c-25.6-1.9-51.3-3.4-76.9-5.8c-7.7-0.7-15.3-1.2-23-1.7
		c-2.7-0.2-5.4-0.3-8.1-0.4c-16.7-0.8-33.4-1.3-50.2-2.7c-19.3-1.5-38.7-2.5-58.1-3.4l-23.3,24.6l145.4-0.1H921l80-0.1
		c4,0.1,8,0.2,12,0.3c0.8,0,1.6-0.2,2.9-0.3c-4.5-29.8-17.1-56.7-27-84.5c0.9,1.6,1.8,3.2,2.6,4.9c8.2,16.9,16.4,33.8,24.4,50.8
		c1,2,1.9,3,4.3,3c5.9-0.3,11.9,0,17.8-0.3c1.4-0.1,3.4-1.3,4.1-2.6c3.9-7.2,6.2-14.7,5.7-23.1c-0.7-9.7,3.1-14,12.9-15.2
		c11.7-1.4,23.1,1,34.2,4.3c7.8,2.3,15.6,5.1,22.6,9.2c10.5,6.2,11.5,14,3.8,23.6c-9.7,12.1-22.3,19-37.8,19.9
		c-7.7,0.4-15.5-0.6-23.2-1.1c-3.2-0.2-6.4-0.4-9.6-0.2c18,3.1,36,7.3,53.9-0.8c8.4-3.8,15.6-9.1,21.3-16.3
		C1134.1,259.2,1132.7,249,1122.3,240.8z"/>
</g>
<g>
	<path class="st3" d="M19.3,305.9v-29.8h3.9v29.8H19.3z"/>
	<path class="st3" d="M33.5,282.3v3.8c1.6-2.8,4.2-4.2,7.7-4.2c2.6,0,4.8,0.9,6.5,2.6c1.7,1.7,2.6,4.2,2.6,7.4v14h-3.9v-13.3
		c0-2.4-0.6-4.2-1.7-5.4c-1.1-1.2-2.7-1.8-4.8-1.8s-3.6,0.6-4.8,1.8c-1.2,1.2-1.7,3-1.7,5.4v13.3h-3.9v-23.6H33.5z"/>
	<path class="st3" d="M55.8,288.9c0-2,0.8-3.6,2.5-5c1.6-1.4,3.8-2,6.4-2c2.6,0,4.7,0.7,6.2,2c1.5,1.3,2.3,3.2,2.5,5.5h-4
		c-0.1-1.3-0.5-2.4-1.3-3.2c-0.8-0.8-2-1.2-3.5-1.2c-1.5,0-2.6,0.4-3.5,1.1c-0.8,0.7-1.3,1.6-1.3,2.7c0,1.1,0.5,2,1.4,2.6
		c1,0.6,2.1,1,3.5,1.3c1.4,0.3,2.7,0.6,4.1,0.9c1.4,0.4,2.5,1,3.5,2c1,1,1.4,2.4,1.4,4.2c0,1.8-0.8,3.4-2.5,4.6s-3.8,1.9-6.4,1.9
		c-2.6,0-4.8-0.7-6.3-2c-1.6-1.3-2.5-3.1-2.6-5.5h4c0.1,1.3,0.5,2.4,1.4,3.2c0.9,0.8,2.1,1.2,3.6,1.2c1.5,0,2.7-0.3,3.6-1
		c0.9-0.7,1.3-1.5,1.3-2.5c0-1-0.3-1.8-1-2.4c-0.7-0.6-1.5-1-2.6-1.2c-1-0.2-2.2-0.5-3.4-0.8c-1.2-0.3-2.3-0.7-3.4-1
		c-1-0.4-1.9-1-2.6-1.9S55.8,290.3,55.8,288.9z"/>
	<path class="st3" d="M87,302.7h3.2v3.2h-4c-4.1,0-6.1-2-6.1-6.1v-14.4h-3.1v-3.2h3.1v-5.8h4v5.8h6.1v3.2h-6.1v14.4
		c0,1.1,0.2,1.8,0.6,2.2S85.9,302.7,87,302.7z"/>
	<path class="st3" d="M96.2,302.8c-2.1-2.3-3.2-5.3-3.2-8.9c0-3.6,1.1-6.5,3.2-8.7c2.1-2.2,4.8-3.3,8.1-3.3c2,0,3.8,0.5,5.3,1.4
		s2.6,2.2,3.4,3.7v-4.7h4v23.6h-4v-4.8c-0.8,1.5-1.9,2.8-3.4,3.8c-1.5,1-3.3,1.4-5.3,1.4C101,306.3,98.3,305.1,96.2,302.8z
		 M110.6,300.5c1.6-1.6,2.3-3.7,2.3-6.4s-0.8-4.8-2.3-6.4c-1.6-1.6-3.4-2.4-5.6-2.4c-2.2,0-4.1,0.8-5.6,2.3
		c-1.6,1.5-2.3,3.7-2.3,6.3s0.8,4.8,2.4,6.5c1.6,1.7,3.5,2.5,5.6,2.5C107.1,302.9,109,302.1,110.6,300.5z"/>
	<path class="st3" d="M127.2,282.3v3.8c1.6-2.8,4.2-4.2,7.7-4.2c2.6,0,4.8,0.9,6.5,2.6c1.7,1.7,2.6,4.2,2.6,7.4v14h-3.9v-13.3
		c0-2.4-0.6-4.2-1.7-5.4c-1.1-1.2-2.7-1.8-4.8-1.8s-3.6,0.6-4.8,1.8c-1.2,1.2-1.7,3-1.7,5.4v13.3h-3.9v-23.6H127.2z"/>
	<path class="st3" d="M158.1,302.7h3.2v3.2h-4c-4.1,0-6.1-2-6.1-6.1v-14.4h-3.1v-3.2h3.1v-5.8h4v5.8h6.1v3.2h-6.1v14.4
		c0,1.1,0.2,1.8,0.6,2.2S157,302.7,158.1,302.7z"/>
	<path class="st3" d="M199,305.9l-2.3-6.5h-13.2l-2.3,6.5h-4l10.8-29.8h4.3l10.8,29.8H199z M184.6,296.2h11l-5.5-15.4L184.6,296.2z"
		/>
	<path class="st3" d="M224.8,282.3h3.9v23.6h-3.9v-3.8c-1.6,2.8-4.1,4.2-7.7,4.2c-2.6,0-4.8-0.9-6.5-2.6c-1.7-1.7-2.6-4.2-2.6-7.4
		v-14h3.9v13.4c0,2.4,0.6,4.1,1.7,5.4s2.7,1.9,4.8,1.9c2,0,3.6-0.6,4.8-1.9s1.7-3,1.7-5.4V282.3z"/>
	<path class="st3" d="M242.9,302.7h3.2v3.2h-4c-4.1,0-6.1-2-6.1-6.1v-14.4H233v-3.2h3.1v-5.8h4v5.8h6.1v3.2H240v14.4
		c0,1.1,0.2,1.8,0.6,2.2S241.9,302.7,242.9,302.7z"/>
	<path class="st3" d="M252.2,302.9c-2.2-2.2-3.2-5.2-3.2-8.8c0-3.6,1.1-6.6,3.4-8.8c2.3-2.3,5.1-3.4,8.5-3.4c3.4,0,6.2,1.1,8.5,3.4
		c2.3,2.3,3.4,5.2,3.4,8.8c0,3.6-1.2,6.6-3.5,8.8c-2.4,2.3-5.3,3.4-8.7,3.4C257.1,306.3,254.3,305.1,252.2,302.9z M260.5,303
		c2.2,0,4.1-0.8,5.7-2.4c1.6-1.6,2.4-3.8,2.4-6.6c0-2.8-0.8-5-2.3-6.6c-1.5-1.6-3.4-2.4-5.7-2.4c-2.2,0-4.1,0.8-5.6,2.4
		c-1.5,1.6-2.2,3.8-2.2,6.6c0,2.8,0.7,5,2.2,6.6C256.5,302.2,258.3,303,260.5,303z"/>
	<path class="st3" d="M303.9,306.1c-4.1,0-7.6-1.4-10.6-4.3c-2.9-2.9-4.4-6.5-4.4-10.9s1.5-8,4.4-10.9s6.5-4.3,10.8-4.3
		c3.1,0,5.9,0.7,8.3,2.2s4.2,3.6,5.4,6.3h-4.7c-1.8-3.4-4.7-5-8.9-5c-3.2,0-5.9,1.1-8,3.2s-3.2,5-3.2,8.5s1.1,6.4,3.2,8.5
		c2.1,2.2,4.7,3.2,7.9,3.2s5.7-0.9,7.6-2.7s3-4.2,3.3-7.2h-12.3v-3.1h16.4v3.1c-0.4,3.8-2,7-4.8,9.5
		C311.5,304.9,308.1,306.1,303.9,306.1z"/>
	<path class="st3" d="M324,305.9V274h3.9v31.8H324z"/>
	<path class="st3" d="M336,302.8c-2.2-2.3-3.2-5.3-3.2-8.9c0-3.6,1.1-6.5,3.2-8.7c2.1-2.2,4.8-3.3,8.1-3.3c2,0,3.8,0.5,5.3,1.4
		c1.5,0.9,2.6,2.2,3.4,3.7v-4.7h4v23.6h-4v-4.8c-0.8,1.5-1.9,2.8-3.4,3.8c-1.5,1-3.3,1.4-5.3,1.4C340.8,306.3,338.1,305.1,336,302.8
		z M350.4,300.5c1.6-1.6,2.3-3.7,2.3-6.4s-0.8-4.8-2.3-6.4c-1.6-1.6-3.4-2.4-5.6-2.4c-2.2,0-4.1,0.8-5.6,2.3
		c-1.6,1.5-2.3,3.7-2.3,6.3s0.8,4.8,2.4,6.5c1.6,1.7,3.5,2.5,5.6,2.5S348.8,302.1,350.4,300.5z"/>
	<path class="st3" d="M362.3,288.9c0-2,0.8-3.6,2.5-5c1.6-1.4,3.8-2,6.4-2s4.7,0.7,6.2,2c1.5,1.3,2.3,3.2,2.5,5.5h-4
		c-0.1-1.3-0.5-2.4-1.3-3.2c-0.8-0.8-2-1.2-3.5-1.2s-2.6,0.4-3.5,1.1c-0.8,0.7-1.3,1.6-1.3,2.7c0,1.1,0.5,2,1.4,2.6
		c1,0.6,2.1,1,3.5,1.3s2.7,0.6,4.1,0.9s2.5,1,3.5,2c1,1,1.4,2.4,1.4,4.2c0,1.8-0.8,3.4-2.5,4.6s-3.8,1.9-6.4,1.9s-4.8-0.7-6.3-2
		s-2.5-3.1-2.6-5.5h4c0.1,1.3,0.5,2.4,1.4,3.2c0.9,0.8,2.1,1.2,3.6,1.2c1.5,0,2.7-0.3,3.6-1c0.9-0.7,1.3-1.5,1.3-2.5
		c0-1-0.3-1.8-1-2.4c-0.7-0.6-1.5-1-2.6-1.2c-1-0.2-2.2-0.5-3.4-0.8c-1.2-0.3-2.3-0.7-3.4-1c-1-0.4-1.9-1-2.6-1.9
		C362.6,291.4,362.3,290.3,362.3,288.9z"/>
	<path class="st3" d="M384.9,288.9c0-2,0.8-3.6,2.5-5c1.6-1.4,3.8-2,6.4-2s4.7,0.7,6.2,2c1.5,1.3,2.3,3.2,2.5,5.5h-4
		c-0.1-1.3-0.5-2.4-1.3-3.2c-0.8-0.8-2-1.2-3.5-1.2s-2.6,0.4-3.5,1.1c-0.8,0.7-1.3,1.6-1.3,2.7c0,1.1,0.5,2,1.4,2.6
		c1,0.6,2.1,1,3.5,1.3s2.7,0.6,4.1,0.9s2.5,1,3.5,2c1,1,1.4,2.4,1.4,4.2c0,1.8-0.8,3.4-2.5,4.6s-3.8,1.9-6.4,1.9s-4.8-0.7-6.3-2
		s-2.5-3.1-2.6-5.5h4c0.1,1.3,0.5,2.4,1.4,3.2c0.9,0.8,2.1,1.2,3.6,1.2c1.5,0,2.7-0.3,3.6-1c0.9-0.7,1.3-1.5,1.3-2.5
		c0-1-0.3-1.8-1-2.4c-0.7-0.6-1.5-1-2.6-1.2c-1-0.2-2.2-0.5-3.4-0.8c-1.2-0.3-2.3-0.7-3.4-1c-1-0.4-1.9-1-2.6-1.9
		C385.2,291.4,384.9,290.3,384.9,288.9z"/>
	<path class="st3" d="M434.9,306.2c-4.3,0-7.9-1.4-10.8-4.3c-2.9-2.9-4.4-6.5-4.4-10.9s1.5-8,4.4-10.9c2.9-2.9,6.5-4.3,10.8-4.3
		c4.3,0,7.9,1.4,10.8,4.3c2.9,2.9,4.4,6.5,4.4,10.9c0,2.8-0.6,5.4-1.9,7.7s-3,4.1-5.2,5.4l7.6,7.5h-5.2l-6-6
		C438,306,436.5,306.2,434.9,306.2z M426.8,282.5c-2.1,2.1-3.2,5-3.2,8.5s1.1,6.4,3.2,8.5c2.1,2.2,4.8,3.2,8,3.2
		c3.2,0,5.9-1.1,8-3.2c2.1-2.1,3.1-5,3.1-8.5s-1-6.4-3.1-8.5s-4.8-3.2-8-3.2C431.6,279.2,428.9,280.3,426.8,282.5z"/>
	<path class="st3" d="M471.7,282.3h3.9v23.6h-3.9v-3.8c-1.6,2.8-4.1,4.2-7.7,4.2c-2.6,0-4.8-0.9-6.5-2.6c-1.7-1.7-2.6-4.2-2.6-7.4
		v-14h3.9v13.4c0,2.4,0.6,4.1,1.7,5.4c1.2,1.2,2.7,1.9,4.8,1.9c2,0,3.6-0.6,4.8-1.9c1.2-1.2,1.7-3,1.7-5.4V282.3z"/>
	<path class="st3" d="M483.7,302.9c-2.2-2.2-3.2-5.2-3.2-8.8c0-3.6,1.1-6.6,3.4-8.8c2.3-2.3,5.1-3.4,8.5-3.4c3.4,0,6.2,1.1,8.5,3.4
		s3.4,5.2,3.4,8.8c0,3.6-1.2,6.6-3.5,8.8c-2.4,2.3-5.3,3.4-8.7,3.4C488.7,306.3,485.9,305.1,483.7,302.9z M492.1,303
		c2.2,0,4.1-0.8,5.7-2.4c1.6-1.6,2.4-3.8,2.4-6.6c0-2.8-0.8-5-2.3-6.6c-1.5-1.6-3.4-2.4-5.7-2.4s-4.1,0.8-5.6,2.4
		c-1.5,1.6-2.2,3.8-2.2,6.6c0,2.8,0.7,5,2.2,6.6C488.1,302.2,489.9,303,492.1,303z"/>
	<path class="st3" d="M516.9,302.7h3.2v3.2h-4c-4.1,0-6.1-2-6.1-6.1v-14.4H507v-3.2h3.1v-5.8h4v5.8h6.1v3.2H514v14.4
		c0,1.1,0.2,1.8,0.6,2.2C515.1,302.5,515.8,302.7,516.9,302.7z"/>
	<path class="st3" d="M534.4,306.3c-3.4,0-6.1-1.1-8.3-3.4c-2.1-2.2-3.2-5.2-3.2-8.9c0-3.7,1.1-6.6,3.2-8.8c2.1-2.2,4.9-3.3,8.4-3.3
		c3.4,0,6.2,1.1,8.3,3.2c2.1,2.1,3.1,4.8,3.1,8.1c0,0.8-0.1,1.6-0.2,2.3h-18.8c0.1,2.4,0.9,4.2,2.2,5.6c1.4,1.4,3.1,2,5.2,2
		c1.6,0,3-0.4,4.1-1.1c1.1-0.7,1.9-1.7,2.4-2.8h4.2c-0.7,2.1-2,3.8-3.8,5.1C539.4,305.6,537.1,306.3,534.4,306.3z M539.6,287.1
		c-1.4-1.4-3.1-2-5.2-2c-2.1,0-3.8,0.7-5.2,2s-2.1,3.2-2.3,5.5h14.8C541.8,290.3,541,288.5,539.6,287.1z"/>
	<path class="st3" d="M549.9,288.9c0-2,0.8-3.6,2.5-5c1.6-1.4,3.8-2,6.4-2s4.7,0.7,6.2,2c1.5,1.3,2.3,3.2,2.5,5.5h-4
		c-0.1-1.3-0.5-2.4-1.3-3.2c-0.8-0.8-2-1.2-3.5-1.2s-2.6,0.4-3.5,1.1c-0.8,0.7-1.3,1.6-1.3,2.7c0,1.1,0.5,2,1.4,2.6
		c1,0.6,2.1,1,3.5,1.3s2.7,0.6,4.1,0.9s2.5,1,3.5,2c1,1,1.4,2.4,1.4,4.2c0,1.8-0.8,3.4-2.5,4.6c-1.6,1.2-3.8,1.9-6.4,1.9
		s-4.8-0.7-6.3-2s-2.5-3.1-2.6-5.5h4c0.1,1.3,0.5,2.4,1.4,3.2c0.9,0.8,2.1,1.2,3.6,1.2c1.5,0,2.7-0.3,3.6-1c0.9-0.7,1.3-1.5,1.3-2.5
		c0-1-0.3-1.8-1-2.4c-0.7-0.6-1.5-1-2.6-1.2c-1-0.2-2.2-0.5-3.4-0.8c-1.2-0.3-2.3-0.7-3.4-1c-1-0.4-1.9-1-2.6-1.9
		C550.2,291.4,549.9,290.3,549.9,288.9z"/>
</g>
</svg>
