<svg xmlns="http://www.w3.org/2000/svg" viewBox="0 0 1131.2 365.1" enable-background="new 0 0 1131.2 365.1"><style type="text/css">.st0{fill:#053B59;} .st1{fill-rule:evenodd;clip-rule:evenodd;fill:#404040;} .st2{fill:#0899CD;} .st3{fill:#787878;}</style><path d="M92 202.8c-3 12-5.7 22.7-7.7 33.2H84c-1.4-10.1-4-21.5-6.7-33l-11.7-48.8h-13l-12.8 48.5c-3.3 12.4-6.3 23.8-7.8 33.4h-.3c-1.7-9.3-4.3-21.3-7.1-33.2l-11.4-48.7H0l24.4 96.2h13l13.7-50.1c3.6-12.4 5.7-21.8 7.4-31.4h.3c1.3 9.7 3.3 19.1 6.3 31.4l12.1 50.1h13l27.3-96.2h-12.7L92 202.8zM133 154.1c-4.6 0-7.8 3.4-7.8 7.8 0 4.3 3.1 7.7 7.6 7.7 5 0 8.1-3.4 8-7.7-.1-4.3-3.1-7.8-7.8-7.8zM126.7 181.4h12.6v69.1h-12.6zM194.5 179.8c-11.4 0-19.4 6.4-22.8 13h-.3l-.7-11.4h-11.1c.4 5.7.6 11.6.6 18.7v50.4h12.6V209c0-2.1.3-4.3.9-5.9 2.1-7 8.6-12.8 16.8-12.8 11.8 0 16 9.3 16 20.4v39.8h12.6v-41.2c-.2-23.8-15.1-29.5-24.6-29.5zM298.9 149.1h-12.6v41.2h-.3c-3.1-5.6-10.3-10.6-20.8-10.6-16.8 0-31.1 14.1-31 37.1 0 21 12.8 35.1 29.5 35.1 11.3 0 19.7-5.9 23.5-13.6h.3l.6 12h11.3c-.4-4.7-.6-11.7-.6-17.8v-83.4zm-12.5 72.4c0 2-.1 3.7-.6 5.4-2.3 9.4-10 15-18.4 15-13.6 0-20.4-11.6-20.4-25.5 0-15.3 7.7-26.7 20.7-26.7 9.4 0 16.3 6.6 18.1 14.6.4 1.6.6 3.7.6 5.3v11.9zM342 210.4c-9-3.4-13.1-6-13.1-11.7 0-5.1 4.1-9.4 11.6-9.4 6.4 0 11.4 2.3 14.1 4l3.1-9.1c-3.9-2.3-10-4.3-17-4.3-14.8 0-23.8 9.1-23.8 20.3 0 8.3 5.8 15.1 18.3 19.5 9.3 3.4 12.8 6.7 12.8 12.7 0 5.7-4.3 10.3-13.4 10.3-6.3 0-12.8-2.6-16.6-5l-3.1 9.6c4.9 2.9 11.8 4.7 19.4 4.7 16.4 0 25.8-8.6 25.8-20.7 0-10.4-6.1-16.4-18.1-20.9zM410.9 179.8c-4.7 0-9.1 1.4-12.8 3.6-3.9 2.1-7 5.3-9 8.9h-.3v-43.1h-12.6v101.3h12.6v-41.7c0-2.4.1-4.3.9-6 2.3-6.8 8.7-12.5 16.8-12.5 11.8 0 16 9.4 16 20.5v39.7H435v-41.1c0-23.9-14.8-29.6-24.1-29.6zM455.5 181.4h12.6v69.1h-12.6zM461.7 154.1c-4.6 0-7.8 3.4-7.8 7.8 0 4.3 3.1 7.7 7.6 7.7 5 0 8.1-3.4 8-7.7-.1-4.3-3.1-7.8-7.8-7.8zM516.2 179.8c-20.1 0-32.4 16.4-32.4 37.2 0 20.8 12.7 34.8 34 34.8 11 0 18.5-2.3 23-4.3l-2.1-9c-4.7 2-10.1 3.6-19.1 3.6-12.6 0-23.4-7-23.7-24h48.5c.1-1.3.4-3.3.4-5.8 0-12.6-6-32.5-28.6-32.5zM496 209.2c1-8.7 6.6-20.4 19.3-20.4 14.1 0 17.5 12.4 17.4 20.4H496zM560.3 149.1h12.6v101.3h-12.6zM653.6 232.6v-83.5H641v41.2h-.3c-3.1-5.6-10.3-10.6-20.8-10.6-16.8 0-31.1 14.1-31 37.1 0 21 12.8 35.1 29.5 35.1 11.3 0 19.7-5.9 23.5-13.6h.3l.6 12h11.3c-.3-4.6-.5-11.5-.5-17.7zm-12.5-11.1c0 2-.1 3.7-.6 5.4-2.3 9.4-10 15-18.4 15-13.6 0-20.4-11.6-20.4-25.5 0-15.3 7.7-26.7 20.7-26.7 9.4 0 16.3 6.6 18.1 14.6.4 1.6.6 3.7.6 5.3v11.9z" class="st0"/><path d="M921.7 196.8c-5.9 0-11.3 4.4-12.7 10.7-.3 1.3-.4 2.6-.4 4v10.3c0 1.4.1 2.7.4 3.8 1.4 5.9 6.4 10.3 12.7 10.3 9.3 0 15-7.1 15-19.7 0-10.8-4.9-19.4-15-19.4zM990.6 272.3c-10.5-33.5-23.7-66.3-36.4-96.9l-5-11.9c-2-3.8-4.2-7.3-6.8-10.4l-2.6-3.2c-1.3-1.4-2.8-2.7-4.4-3.9-2.7-2.2-5-3.5-6.2-4.1h-.2s-3.2-1.7-4-2c-12.6-6.2-26.6-10.7-42.9-13.8-17.6-3.3-36.4-6.8-54.9-9.1-2.4-.3-4.9-.6-7.3-.9l-1.9-.2c-25.2-2.7-51.3-4.4-77.4-5.1-4.2-.1-8.4-.2-12.9-.3v81.8h35.8v-37h21.7v109.9c19.4.9 39.2 1.8 58.7 3.4 12.4 1 25.1 1.6 37.3 2.1 4.2.2 8.4.4 12.6.6l8.2.4c9.4.5 16.5 1.1 23.3 1.7 18.1 1.7 36.5 3 54.4 4.2 4.2.3 8.3.6 12.5.9-.4-2.1-.9-4.2-1.6-6.2zm-139.4-20.8l-1-9.8h-.4c-2.7 4.3-9.3 11.4-21.8 11.4-14.1 0-24.5-8.9-24.5-30.4v-41h21.8v37.5c0 10.1 3.3 16.3 10.8 16.3 6 0 9.4-4.1 10.8-7.6.6-1.3.7-3 .7-4.7v-41.5h21.8v47.4c0 9.1.3 16.5.6 22.4h-18.8zm75.6 1.6c-8.1 0-16-3-21-11.3h-.3l-.9 9.7h-18.4c.3-4.6.6-13 .6-20.8v-80.5h21.7V190h.3c4.2-6 11.4-9.8 21.1-9.8 16.7 0 29 13.8 28.8 35.2.1 25.1-15.9 37.7-31.9 37.7zm-198.9-1.6h-21.8V110.1c-1.9 0-3.7 0-5.7-.1h-.4v152c1 0 2.1.1 3.1.1 3.1 0 6.3.1 9.5.2 14.1.4 29.3.9 46.6 1.7l4.5.2v-53.1h-35.8v40.4z" class="st1"/><path d="M1122.3 240.8c-8.4-6.5-18.3-10-28.4-12.7-8.3-2.2-16.8-3.8-25.3-5-4.4-.6-9.1 0-13.4 1-10.6 2.3-16.2 10-16 20.8.1 3 .1 6-.6 8.8-1.9 9-2 8.9-11.3 9-2.9 0-4.1-1.2-5.2-3.7-16.3-38.7-35.6-75.9-58.3-111.1-1.3-2-2.7-4.1-4-6.1-.9-1.4-1.9-2.7-2.9-3.9-7.8-9.7-18.7-15.5-30.1-20.4-16.6-7.1-34.1-11.8-51.9-14.9-14.3-2.5-28.6-5.4-43-7.2-.8-.1-1.7-.2-2.5-.3-2.4-.3-4.8-.6-7.2-.8-17.1-1.9-34.3-3.3-51.4-4.5-26.4-1.9-52.9-2.7-79.4-2.8-4.4 0-8.9 0-13.4 0v211.5h24.5l-21.7 59.6 82.6-85.3c-1.6-.1-3.3-.1-4.9-.2-15.5-.7-30.9-1.3-46.4-1.7-3.2-.1-6.3-.2-9.5-.2-3.8-.1-7.5-.2-11.3-.2V101.7c3 0 5.9.1 8.8.1 13.5.2 27 .4 40.5.8 26.1.7 52.2 2.4 78.2 5.2.6.1 1.2.1 1.8.2 2.5.3 5 .6 7.4.9 18.6 2.3 37 5.7 55.4 9.2 15.5 2.9 30.7 7.5 45 14.5.8.4 1.5.8 2.3 1.2 0 0 1 .4 2.7 1.3 1.7.9 4 2.4 6.7 4.5 2.8 2.1 5.5 4.6 7.9 7.7.2.3.4.5.6.8 0 0-.1 0-.1 0 4.7 5.8 9.4 13.6 13 24.3 6.7 16 13.2 32.2 19.5 48.4 6.2 16.3 12 32.6 17.2 49.3 1.8 5.6 3.1 11.4 4.7 17.2-1.2.4-1.4.6-1.7.6-25.6-1.9-51.3-3.4-76.9-5.8-7.7-.7-15.3-1.2-23-1.7-2.7-.2-5.4-.3-8.1-.4-16.7-.8-33.4-1.3-50.2-2.7-19.3-1.5-38.7-2.5-58.1-3.4l-23.3 24.6 145.4-.1h14l80-.1c4 .1 8 .2 12 .3.8 0 1.6-.2 2.9-.3-4.5-29.8-17.1-56.7-27-84.5.9 1.6 1.8 3.2 2.6 4.9 8.2 16.9 16.4 33.8 24.4 50.8 1 2 1.9 3 4.3 3 5.9-.3 11.9 0 17.8-.3 1.4-.1 3.4-1.3 4.1-2.6 3.9-7.2 6.2-14.7 5.7-23.1-.7-9.7 3.1-14 12.9-15.2 11.7-1.4 23.1 1 34.2 4.3 7.8 2.3 15.6 5.1 22.6 9.2 10.5 6.2 11.5 14 3.8 23.6-9.7 12.1-22.3 19-37.8 19.9-7.7.4-15.5-.6-23.2-1.1-3.2-.2-6.4-.4-9.6-.2 18 3.1 36 7.3 53.9-.8 8.4-3.8 15.6-9.1 21.3-16.3 8.2-10.7 6.8-20.9-3.6-29.1z" class="st2"/><path d="M19.3 305.9v-29.8h3.9v29.8h-3.9zM33.5 282.3v3.8c1.6-2.8 4.2-4.2 7.7-4.2 2.6 0 4.8.9 6.5 2.6 1.7 1.7 2.6 4.2 2.6 7.4v14h-3.9v-13.3c0-2.4-.6-4.2-1.7-5.4-1.1-1.2-2.7-1.8-4.8-1.8s-3.6.6-4.8 1.8c-1.2 1.2-1.7 3-1.7 5.4v13.3h-3.9v-23.6h4zM55.8 288.9c0-2 .8-3.6 2.5-5 1.6-1.4 3.8-2 6.4-2 2.6 0 4.7.7 6.2 2s2.3 3.2 2.5 5.5h-4c-.1-1.3-.5-2.4-1.3-3.2-.8-.8-2-1.2-3.5-1.2s-2.6.4-3.5 1.1c-.8.7-1.3 1.6-1.3 2.7s.5 2 1.4 2.6c1 .6 2.1 1 3.5 1.3 1.4.3 2.7.6 4.1.9 1.4.4 2.5 1 3.5 2s1.4 2.4 1.4 4.2c0 1.8-.8 3.4-2.5 4.6s-3.8 1.9-6.4 1.9c-2.6 0-4.8-.7-6.3-2-1.6-1.3-2.5-3.1-2.6-5.5h4c.1 1.3.5 2.4 1.4 3.2.9.8 2.1 1.2 3.6 1.2s2.7-.3 3.6-1c.9-.7 1.3-1.5 1.3-2.5s-.3-1.8-1-2.4c-.7-.6-1.5-1-2.6-1.2-1-.2-2.2-.5-3.4-.8-1.2-.3-2.3-.7-3.4-1-1-.4-1.9-1-2.6-1.9s-1-2.1-1-3.5zM87 302.7h3.2v3.2h-4c-4.1 0-6.1-2-6.1-6.1v-14.4H77v-3.2h3.1v-5.8h4v5.8h6.1v3.2h-6.1v14.4c0 1.1.2 1.8.6 2.2s1.2.7 2.3.7zM96.2 302.8c-2.1-2.3-3.2-5.3-3.2-8.9 0-3.6 1.1-6.5 3.2-8.7 2.1-2.2 4.8-3.3 8.1-3.3 2 0 3.8.5 5.3 1.4s2.6 2.2 3.4 3.7v-4.7h4v23.6h-4v-4.8c-.8 1.5-1.9 2.8-3.4 3.8s-3.3 1.4-5.3 1.4c-3.3 0-6-1.2-8.1-3.5zm14.4-2.3c1.6-1.6 2.3-3.7 2.3-6.4s-.8-4.8-2.3-6.4c-1.6-1.6-3.4-2.4-5.6-2.4-2.2 0-4.1.8-5.6 2.3-1.6 1.5-2.3 3.7-2.3 6.3s.8 4.8 2.4 6.5c1.6 1.7 3.5 2.5 5.6 2.5 2 0 3.9-.8 5.5-2.4zM127.2 282.3v3.8c1.6-2.8 4.2-4.2 7.7-4.2 2.6 0 4.8.9 6.5 2.6 1.7 1.7 2.6 4.2 2.6 7.4v14h-3.9v-13.3c0-2.4-.6-4.2-1.7-5.4-1.1-1.2-2.7-1.8-4.8-1.8s-3.6.6-4.8 1.8c-1.2 1.2-1.7 3-1.7 5.4v13.3h-3.9v-23.6h4zM158.1 302.7h3.2v3.2h-4c-4.1 0-6.1-2-6.1-6.1v-14.4h-3.1v-3.2h3.1v-5.8h4v5.8h6.1v3.2h-6.1v14.4c0 1.1.2 1.8.6 2.2s1.2.7 2.3.7zM199 305.9l-2.3-6.5h-13.2l-2.3 6.5h-4l10.8-29.8h4.3l10.8 29.8H199zm-14.4-9.7h11l-5.5-15.4-5.5 15.4zM224.8 282.3h3.9v23.6h-3.9v-3.8c-1.6 2.8-4.1 4.2-7.7 4.2-2.6 0-4.8-.9-6.5-2.6-1.7-1.7-2.6-4.2-2.6-7.4v-14h3.9v13.4c0 2.4.6 4.1 1.7 5.4s2.7 1.9 4.8 1.9c2 0 3.6-.6 4.8-1.9s1.7-3 1.7-5.4v-13.4zM242.9 302.7h3.2v3.2h-4c-4.1 0-6.1-2-6.1-6.1v-14.4h-3v-3.2h3.1v-5.8h4v5.8h6.1v3.2H240v14.4c0 1.1.2 1.8.6 2.2s1.3.7 2.3.7zM252.2 302.9c-2.2-2.2-3.2-5.2-3.2-8.8 0-3.6 1.1-6.6 3.4-8.8 2.3-2.3 5.1-3.4 8.5-3.4 3.4 0 6.2 1.1 8.5 3.4s3.4 5.2 3.4 8.8c0 3.6-1.2 6.6-3.5 8.8-2.4 2.3-5.3 3.4-8.7 3.4-3.5 0-6.3-1.2-8.4-3.4zm8.3.1c2.2 0 4.1-.8 5.7-2.4 1.6-1.6 2.4-3.8 2.4-6.6s-.8-5-2.3-6.6c-1.5-1.6-3.4-2.4-5.7-2.4-2.2 0-4.1.8-5.6 2.4-1.5 1.6-2.2 3.8-2.2 6.6s.7 5 2.2 6.6c1.5 1.6 3.3 2.4 5.5 2.4zM303.9 306.1c-4.1 0-7.6-1.4-10.6-4.3-2.9-2.9-4.4-6.5-4.4-10.9s1.5-8 4.4-10.9 6.5-4.3 10.8-4.3c3.1 0 5.9.7 8.3 2.2s4.2 3.6 5.4 6.3h-4.7c-1.8-3.4-4.7-5-8.9-5-3.2 0-5.9 1.1-8 3.2s-3.2 5-3.2 8.5 1.1 6.4 3.2 8.5c2.1 2.2 4.7 3.2 7.9 3.2s5.7-.9 7.6-2.7 3-4.2 3.3-7.2h-12.3v-3.1h16.4v3.1c-.4 3.8-2 7-4.8 9.5-2.8 2.7-6.2 3.9-10.4 3.9zM324 305.9V274h3.9v31.8H324zM336 302.8c-2.2-2.3-3.2-5.3-3.2-8.9 0-3.6 1.1-6.5 3.2-8.7 2.1-2.2 4.8-3.3 8.1-3.3 2 0 3.8.5 5.3 1.4 1.5.9 2.6 2.2 3.4 3.7v-4.7h4v23.6h-4v-4.8c-.8 1.5-1.9 2.8-3.4 3.8s-3.3 1.4-5.3 1.4c-3.3 0-6-1.2-8.1-3.5zm14.4-2.3c1.6-1.6 2.3-3.7 2.3-6.4s-.8-4.8-2.3-6.4c-1.6-1.6-3.4-2.4-5.6-2.4-2.2 0-4.1.8-5.6 2.3-1.6 1.5-2.3 3.7-2.3 6.3s.8 4.8 2.4 6.5c1.6 1.7 3.5 2.5 5.6 2.5s3.9-.8 5.5-2.4zM362.3 288.9c0-2 .8-3.6 2.5-5 1.6-1.4 3.8-2 6.4-2s4.7.7 6.2 2 2.3 3.2 2.5 5.5h-4c-.1-1.3-.5-2.4-1.3-3.2-.8-.8-2-1.2-3.5-1.2s-2.6.4-3.5 1.1c-.8.7-1.3 1.6-1.3 2.7s.5 2 1.4 2.6c1 .6 2.1 1 3.5 1.3s2.7.6 4.1.9 2.5 1 3.5 2 1.4 2.4 1.4 4.2c0 1.8-.8 3.4-2.5 4.6s-3.8 1.9-6.4 1.9-4.8-.7-6.3-2-2.5-3.1-2.6-5.5h4c.1 1.3.5 2.4 1.4 3.2.9.8 2.1 1.2 3.6 1.2s2.7-.3 3.6-1c.9-.7 1.3-1.5 1.3-2.5s-.3-1.8-1-2.4c-.7-.6-1.5-1-2.6-1.2-1-.2-2.2-.5-3.4-.8-1.2-.3-2.3-.7-3.4-1-1-.4-1.9-1-2.6-1.9-.7-1-1-2.1-1-3.5zM384.9 288.9c0-2 .8-3.6 2.5-5 1.6-1.4 3.8-2 6.4-2s4.7.7 6.2 2 2.3 3.2 2.5 5.5h-4c-.1-1.3-.5-2.4-1.3-3.2-.8-.8-2-1.2-3.5-1.2s-2.6.4-3.5 1.1c-.8.7-1.3 1.6-1.3 2.7s.5 2 1.4 2.6c1 .6 2.1 1 3.5 1.3s2.7.6 4.1.9 2.5 1 3.5 2 1.4 2.4 1.4 4.2c0 1.8-.8 3.4-2.5 4.6s-3.8 1.9-6.4 1.9-4.8-.7-6.3-2-2.5-3.1-2.6-5.5h4c.1 1.3.5 2.4 1.4 3.2.9.8 2.1 1.2 3.6 1.2s2.7-.3 3.6-1c.9-.7 1.3-1.5 1.3-2.5s-.3-1.8-1-2.4c-.7-.6-1.5-1-2.6-1.2-1-.2-2.2-.5-3.4-.8-1.2-.3-2.3-.7-3.4-1-1-.4-1.9-1-2.6-1.9-.7-1-1-2.1-1-3.5zM434.9 306.2c-4.3 0-7.9-1.4-10.8-4.3-2.9-2.9-4.4-6.5-4.4-10.9s1.5-8 4.4-10.9c2.9-2.9 6.5-4.3 10.8-4.3 4.3 0 7.9 1.4 10.8 4.3 2.9 2.9 4.4 6.5 4.4 10.9 0 2.8-.6 5.4-1.9 7.7s-3 4.1-5.2 5.4l7.6 7.5h-5.2l-6-6c-1.4.4-2.9.6-4.5.6zm-8.1-23.7c-2.1 2.1-3.2 5-3.2 8.5s1.1 6.4 3.2 8.5c2.1 2.2 4.8 3.2 8 3.2s5.9-1.1 8-3.2c2.1-2.1 3.1-5 3.1-8.5s-1-6.4-3.1-8.5-4.8-3.2-8-3.2c-3.2-.1-5.9 1-8 3.2zM471.7 282.3h3.9v23.6h-3.9v-3.8c-1.6 2.8-4.1 4.2-7.7 4.2-2.6 0-4.8-.9-6.5-2.6-1.7-1.7-2.6-4.2-2.6-7.4v-14h3.9v13.4c0 2.4.6 4.1 1.7 5.4 1.2 1.2 2.7 1.9 4.8 1.9 2 0 3.6-.6 4.8-1.9 1.2-1.2 1.7-3 1.7-5.4v-13.4zM483.7 302.9c-2.2-2.2-3.2-5.2-3.2-8.8 0-3.6 1.1-6.6 3.4-8.8 2.3-2.3 5.1-3.4 8.5-3.4 3.4 0 6.2 1.1 8.5 3.4s3.4 5.2 3.4 8.8c0 3.6-1.2 6.6-3.5 8.8-2.4 2.3-5.3 3.4-8.7 3.4-3.4 0-6.2-1.2-8.4-3.4zm8.4.1c2.2 0 4.1-.8 5.7-2.4 1.6-1.6 2.4-3.8 2.4-6.6s-.8-5-2.3-6.6c-1.5-1.6-3.4-2.4-5.7-2.4s-4.1.8-5.6 2.4c-1.5 1.6-2.2 3.8-2.2 6.6s.7 5 2.2 6.6c1.5 1.6 3.3 2.4 5.5 2.4zM516.9 302.7h3.2v3.2h-4c-4.1 0-6.1-2-6.1-6.1v-14.4h-3v-3.2h3.1v-5.8h4v5.8h6.1v3.2H514v14.4c0 1.1.2 1.8.6 2.2.5.5 1.2.7 2.3.7zM534.4 306.3c-3.4 0-6.1-1.1-8.3-3.4-2.1-2.2-3.2-5.2-3.2-8.9s1.1-6.6 3.2-8.8c2.1-2.2 4.9-3.3 8.4-3.3 3.4 0 6.2 1.1 8.3 3.2 2.1 2.1 3.1 4.8 3.1 8.1 0 .8-.1 1.6-.2 2.3h-18.8c.1 2.4.9 4.2 2.2 5.6 1.4 1.4 3.1 2 5.2 2 1.6 0 3-.4 4.1-1.1 1.1-.7 1.9-1.7 2.4-2.8h4.2c-.7 2.1-2 3.8-3.8 5.1-1.8 1.3-4.1 2-6.8 2zm5.2-19.2c-1.4-1.4-3.1-2-5.2-2s-3.8.7-5.2 2-2.1 3.2-2.3 5.5h14.8c.1-2.3-.7-4.1-2.1-5.5zM549.9 288.9c0-2 .8-3.6 2.5-5 1.6-1.4 3.8-2 6.4-2s4.7.7 6.2 2 2.3 3.2 2.5 5.5h-4c-.1-1.3-.5-2.4-1.3-3.2-.8-.8-2-1.2-3.5-1.2s-2.6.4-3.5 1.1c-.8.7-1.3 1.6-1.3 2.7s.5 2 1.4 2.6c1 .6 2.1 1 3.5 1.3s2.7.6 4.1.9 2.5 1 3.5 2 1.4 2.4 1.4 4.2c0 1.8-.8 3.4-2.5 4.6-1.6 1.2-3.8 1.9-6.4 1.9s-4.8-.7-6.3-2-2.5-3.1-2.6-5.5h4c.1 1.3.5 2.4 1.4 3.2.9.8 2.1 1.2 3.6 1.2s2.7-.3 3.6-1c.9-.7 1.3-1.5 1.3-2.5s-.3-1.8-1-2.4c-.7-.6-1.5-1-2.6-1.2-1-.2-2.2-.5-3.4-.8-1.2-.3-2.3-.7-3.4-1-1-.4-1.9-1-2.6-1.9-.7-1-1-2.1-1-3.5z" class="st3"/></svg>